<svg xmlns="http://www.w3.org/2000/svg" viewBox="0 0 82.94 20.74"><title>Amex</title><path d="M44.12.08a2.06,2.06,0,0,0-2.33.9L33.18,14.75,24.57,1a2.07,2.07,0,0,0-3.83,1.09V16.59h-.45l-3.76-15a2.08,2.08,0,0,0-2-1.57H10.37A2.09,2.09,0,0,0,8.51,1.15L.22,17.73a2.08,2.08,0,0,0,1.86,3,2.06,2.06,0,0,0,1.85-1.15L11.65,4.15H12.9l3.75,15a2.08,2.08,0,0,0,2,1.58h4.15a2.07,2.07,0,0,0,2.07-2.08V9.3l6.54,10.46a2.16,2.16,0,0,0,3.52,0L41.47,9.3v9.36a2.08,2.08,0,1,0,4.15,0V2.07a2.08,2.08,0,0,0-1.5-2" fill="#2699fb"/><path d="M63.42,16.59H53.91V4.15h9.51l6.22,6.22Zm12.09-6.22,6.82-6.83A2.07,2.07,0,1,0,79.4.61L72.58,7.43,65.75.61A2.08,2.08,0,0,0,64.28,0H51.84a2.07,2.07,0,0,0-2.07,2.07V18.66a2.08,2.08,0,0,0,2.07,2.08H64.28a2.08,2.08,0,0,0,1.47-.61l6.83-6.83,6.82,6.83a2.11,2.11,0,0,0,1.47.61,2.08,2.08,0,0,0,1.46-3.55Z" fill="#2699fb"/><path d="M58.06,8.29H51.84a2.08,2.08,0,0,0,0,4.15h6.22a2.08,2.08,0,0,0,0-4.15" fill="#2699fb"/><path d="M16.59,12.44H6.22a2.08,2.08,0,0,0,0,4.15H16.59a2.08,2.08,0,0,0,0-4.15" fill="#2699fb"/></svg>