<svg xmlns="http://www.w3.org/2000/svg" viewBox="0 0 67.42 67.97"><title>Icons - Apps</title><circle cx="8.55" cy="8.55" r="8.05" fill="none" stroke="#2699fb" stroke-miterlimit="10"/><path d="M50.83,8.55a8,8,0,1,1,8.05,8" fill="none" stroke="#2699fb" stroke-miterlimit="10"/><path d="M41.76,8.55a8,8,0,1,1-8-8A8,8,0,0,1,41.76,8.55Z" fill="none" stroke="#2699fb" stroke-miterlimit="10"/><path d="M16.59,33.71a8,8,0,1,1-8-8" fill="none" stroke="#2699fb" stroke-miterlimit="10"/><path d="M41.76,33.71a8,8,0,1,1-8-8A8,8,0,0,1,41.76,33.71Z" fill="none" stroke="#2699fb" stroke-miterlimit="10"/><circle cx="8.55" cy="58.88" r="8.05" fill="none" stroke="#2699fb" stroke-miterlimit="10"/><path d="M66.92,33.71a8,8,0,1,1-8-8A8,8,0,0,1,66.92,33.71Z" fill="none" stroke="#2699fb" stroke-miterlimit="10"/><path d="M41.76,58.88a8,8,0,1,1-8-8.05A8,8,0,0,1,41.76,58.88Z" fill="none" stroke="#2699fb" stroke-miterlimit="10"/><line x1="50.13" y1="59.42" x2="67.21" y2="59.42" fill="none" stroke="#2699fb" stroke-miterlimit="10"/><line x1="58.67" y1="67.97" x2="58.67" y2="50.88" fill="none" stroke="#2699fb" stroke-miterlimit="10"/></svg>