<svg xmlns="http://www.w3.org/2000/svg" viewBox="0 0 59.58 69.38"><title>Icons - Whitepaper</title><polyline points="17.83 54.76 0.5 54.76 0.5 0.5 32.4 0.5 42.95 11.05 42.95 26.88" fill="none" stroke="#2699fb" stroke-miterlimit="10"/><polyline points="17.83 54.76 0.5 54.76 0.5 0.5 32.4 0.5 42.95 11.05 42.95 26.88" fill="none" stroke="#2699fb" stroke-miterlimit="10"/><polyline points="32.59 0.5 32.59 11.14 43.23 11.14" fill="none" stroke="#2699fb" stroke-miterlimit="10"/><path d="M33.53,56.9A14.07,14.07,0,1,0,19.47,42.83,14.07,14.07,0,0,0,33.53,56.9" fill="none" stroke="#2699fb" stroke-miterlimit="10"/><path d="M33.53,56.9A14.07,14.07,0,1,0,19.47,42.83,14.07,14.07,0,0,0,33.53,56.9Z" fill="none" stroke="#2699fb" stroke-miterlimit="10"/><polyline points="41.63 54.82 55.48 68.67 58.88 65.28 45.02 51.42" fill="none" stroke="#2699fb" stroke-miterlimit="10"/><polyline points="41.63 54.82 55.48 68.67 58.88 65.28 45.02 51.42" fill="none" stroke="#2699fb" stroke-miterlimit="10"/><line x1="6.28" y1="7.53" x2="27.38" y2="7.53" fill="none" stroke="#2699fb" stroke-miterlimit="10"/><line x1="6.28" y1="17.49" x2="36.84" y2="17.49" fill="none" stroke="#2699fb" stroke-miterlimit="10"/><line x1="6.28" y1="27.44" x2="22.86" y2="27.44" fill="none" stroke="#2699fb" stroke-miterlimit="10"/><line x1="6.28" y1="37.4" x2="14.57" y2="37.4" fill="none" stroke="#2699fb" stroke-miterlimit="10"/><line x1="6.28" y1="47.35" x2="14.57" y2="47.35" fill="none" stroke="#2699fb" stroke-miterlimit="10"/><polyline points="27.75 42.73 32.36 47.14 40.29 39.54" fill="none" stroke="#2699fb" stroke-miterlimit="10"/><polyline points="27.75 42.73 32.36 47.14 40.29 39.54" fill="none" stroke="#2699fb" stroke-miterlimit="10"/></svg>