<svg xmlns="http://www.w3.org/2000/svg" viewBox="0 0 92.16 65.58"><title>Icons - Hands</title><path d="M56.18,45.63l4.93,3.88s5,3,1.92,7.18-8.47-.64-8.47-.64" fill="#fff"/><path d="M56.18,45.63l4.93,3.88s5,3,1.92,7.18-8.47-.64-8.47-.64" fill="none" stroke="#2699fb" stroke-miterlimit="10" stroke-width="1.25"/><path d="M77.72,37.27l14.08-10M42.45,10.77l33.67,26.5s4.95,3.1,2.4,6.42c-3.81,5-10.43-1.16-10.43-1.16m-5.48-4.32,5.48,4.32s4.32,3.86,1.9,6.95c-3.11,4-8,.66-8,.66" fill="#fff"/><path d="M77.72,37.27l14.08-10M42.45,10.77l33.67,26.5s4.95,3.1,2.4,6.42c-3.81,5-10.43-1.16-10.43-1.16m-5.48-4.32,5.48,4.32s4.32,3.86,1.9,6.95c-3.11,4-8,.66-8,.66" fill="none" stroke="#2699fb" stroke-miterlimit="10" stroke-width="1.25"/><path d="M23.26,39.47,18.8,43.9a4,4,0,0,1-5.86-5.41L15,36.43" fill="#fff"/><path d="M23.26,39.47,18.8,43.9a4,4,0,0,1-5.86-5.41L15,36.43" fill="none" stroke="#2699fb" stroke-miterlimit="10" stroke-width="1.25"/><path d="M82.4.51l-14.08,10H45.54A19.7,19.7,0,0,0,33.13,15a13.18,13.18,0,0,0-3.72,4.76c-.56,1.38-1,3.22-.07,4.53,1.75,2.44,4.59,1,6.56-.32,2.47-1.64,4.84-3.76,7.68-4.69,3.19-1.06,6.89-1.37,10,.21l4,3.18,8.73,6.87" fill="#fff"/><path d="M82.4.51l-14.08,10H45.54A19.7,19.7,0,0,0,33.13,15a13.18,13.18,0,0,0-3.72,4.76c-.56,1.38-1,3.22-.07,4.53,1.75,2.44,4.59,1,6.56-.32,2.47-1.64,4.84-3.76,7.68-4.69,3.19-1.06,6.89-1.37,10,.21l4,3.18,8.73,6.87" fill="none" stroke="#2699fb" stroke-miterlimit="10" stroke-width="1.25"/><path d="M.39,24.92,48.13,62.49s4.88,4.88,8.28.91-1.85-7.35-1.85-7.35l-4.22-3.32" fill="#fff"/><path d="M.39,24.92,48.13,62.49s4.88,4.88,8.28.91-1.85-7.35-1.85-7.35l-4.22-3.32" fill="none" stroke="#2699fb" stroke-miterlimit="10" stroke-width="1.25"/><path d="M24.93,50a4,4,0,0,1-5.85-5.41l7.57-8.19a4,4,0,0,1,5.85,5.41Z" fill="#fff"/><path d="M24.93,50a4,4,0,0,1-5.85-5.41l7.57-8.19a4,4,0,0,1,5.85,5.41Z" fill="none" stroke="#2699fb" stroke-miterlimit="10" stroke-width="1.25"/><path d="M30.53,55.63a4,4,0,0,1-5.86-5.41l6.72-7a4,4,0,0,1,5.85,5.41Z" fill="#fff"/><path d="M30.53,55.63a4,4,0,0,1-5.86-5.41l6.72-7a4,4,0,0,1,5.85,5.41Z" fill="none" stroke="#2699fb" stroke-miterlimit="10" stroke-width="1.25"/><path d="M36.24,61.34a4,4,0,0,1-5.86-5.41l4.47-4.43a4,4,0,1,1,5.85,5.41Z" fill="#fff"/><path d="M36.24,61.34a4,4,0,0,1-5.86-5.41l4.47-4.43a4,4,0,1,1,5.85,5.41Z" fill="none" stroke="#2699fb" stroke-miterlimit="10" stroke-width="1.25"/><line x1="18.36" y1="4.43" x2="31.93" y2="15.34" fill="none" stroke="#2699fb" stroke-miterlimit="10" stroke-width="1.25"/></svg>