<svg xmlns="http://www.w3.org/2000/svg" viewBox="0 0 89.23 68.95"><title>Icons - Location</title><path d="M88.56,19.26C88.56,29.53,70,54.38,70,54.38S51.37,29.53,51.37,19.26a18.6,18.6,0,1,1,37.19,0" fill="#fff"/><path d="M88.56,19.26C88.56,29.53,70,54.38,70,54.38S51.37,29.53,51.37,19.26a18.6,18.6,0,1,1,37.19,0Z" fill="none" stroke="#2699fb" stroke-miterlimit="10"/><path d="M76.1,18.1A6.14,6.14,0,1,1,70,12,6.13,6.13,0,0,1,76.1,18.1" fill="#fff"/><circle cx="69.96" cy="18.1" r="6.13" fill="none" stroke="#2699fb" stroke-miterlimit="10"/><path d="M37.86,19.26c0,10.27-18.6,35.12-18.6,35.12S.67,29.53.67,19.26a18.6,18.6,0,1,1,37.19,0" fill="#fff"/><path d="M37.86,19.26c0,10.27-18.6,35.12-18.6,35.12S.67,29.53.67,19.26a18.6,18.6,0,1,1,37.19,0Z" fill="none" stroke="#2699fb" stroke-miterlimit="10"/><path d="M25.39,18.1A6.13,6.13,0,1,1,19.26,12a6.12,6.12,0,0,1,6.13,6.13" fill="#fff"/><circle cx="19.26" cy="18.1" r="6.13" fill="none" stroke="#2699fb" stroke-miterlimit="10"/><path d="M63.14,32.72c0,10.27-18.6,35.12-18.6,35.12S25.94,43,25.94,32.72a18.6,18.6,0,0,1,37.2,0" fill="#fff"/><path d="M63.14,32.72c0,10.27-18.6,35.12-18.6,35.12S25.94,43,25.94,32.72a18.6,18.6,0,0,1,37.2,0Z" fill="none" stroke="#2699fb" stroke-miterlimit="10"/><path d="M50.67,31.56a6.13,6.13,0,1,1-6.13-6.14,6.13,6.13,0,0,1,6.13,6.14" fill="#fff"/><path d="M50.67,31.56a6.13,6.13,0,1,1-6.13-6.14A6.13,6.13,0,0,1,50.67,31.56Z" fill="none" stroke="#2699fb" stroke-miterlimit="10"/></svg>