<svg xmlns="http://www.w3.org/2000/svg" viewBox="0 0 81.61 70.35"><title>Icons - Cloud</title><path d="M60.72,23.28a22.33,22.33,0,0,1,4.42-.45,15.89,15.89,0,1,1,0,31.78H62.46" fill="none" stroke="#2699fb" stroke-miterlimit="10"/><path d="M27.65,11A22.26,22.26,0,0,1,68.76,22.84" fill="none" stroke="#2699fb" stroke-miterlimit="10"/><path d="M21.58,54.61h-3a18,18,0,0,1-9.2-33.43h0C9.34,15,14.76,8.78,21,8.78A11.25,11.25,0,0,1,32.22,20" fill="none" stroke="#2699fb" stroke-miterlimit="10"/><polyline points="53.65 57.98 42.1 69.53 30.55 57.98" fill="none" stroke="#2699fb" stroke-miterlimit="10"/><line x1="42.1" y1="36.63" x2="42.1" y2="68.64" fill="none" stroke="#2699fb" stroke-miterlimit="10"/></svg>