<svg xmlns="http://www.w3.org/2000/svg" viewBox="0 0 70.23 70.13"><title>Icons - Editing</title><path d="M62.46,43.75V57.08A12.5,12.5,0,0,1,50,69.55H13.05A12.5,12.5,0,0,1,.58,57.08V20.14A12.5,12.5,0,0,1,13.05,7.67H26" fill="none" stroke="#2699fb" stroke-miterlimit="10"/><path d="M57.15,2.18h0a4.82,4.82,0,0,1,6.76-.4l4.54,4.55c1.75,1.74,1.57,4.78-.4,6.75h0l-1.47,1.47L32.29,48.83,20.23,50,21.4,37.94,56.19,3.15l1-1" fill="none" stroke="#2699fb" stroke-miterlimit="10"/><line x1="21.5" y1="37.83" x2="32.4" y2="48.73" fill="none" stroke="#2699fb" stroke-miterlimit="10"/><line x1="54.17" y1="5.08" x2="65.11" y2="16.02" fill="none" stroke="#2699fb" stroke-miterlimit="10"/></svg>