<svg xmlns="http://www.w3.org/2000/svg" viewBox="0 0 261.52 69.38"><title>Leogis</title><path d="M68.29,52.2V4.8a1.2,1.2,0,0,1,1.29-1.28h7.77c.78,0,1.21.5,1.21,1.35V52.2a1.09,1.09,0,0,1-1.21,1.21H69.58a1.14,1.14,0,0,1-1.29-1.21" fill="#2699fb"/><path d="M111.41,31c.72,0,.86-.28.86-.92,0-3.64-1.85-7.7-7.2-7.7a7.49,7.49,0,0,0-7.63,7.7c0,.64.08.92.93.92ZM86.82,35.17c0-12.83,7.28-19.25,18.32-19.25,11.55,0,17.11,6.63,17.11,19.89,0,1.07-.28,1.5-1.28,1.5H98.37c-.85,0-1.07.35-1.07,1.42,0,6.06,5.13,8.2,11,8.2,6.13,0,9.2-2.21,10.69-2.21.79,0,1,.5,1,1.35v4.07c0,.85-.28,1.42-1.57,2-2.21,1-6.34,1.78-11,1.78-13.32,0-20.6-5.56-20.6-18.74" fill="#2699fb"/><path d="M154.46,35c0-8.55-2.56-12.11-8.12-12.11-6,0-8.41,3.92-8.41,12.11s2.56,12,8.34,12c5.49,0,8.19-3.78,8.19-12m-27,0c0-11,5.77-19,18.89-19,12.26,0,18.6,7.34,18.6,19,0,11-5.49,19-18.67,19s-18.82-7.62-18.82-19" fill="#2699fb"/><path d="M196.94,41.65V27c0-2.85-2.78-4.2-6.2-4.2-5.42,0-9.34,3.27-9.34,12.26,0,7,2.5,11.4,8.84,11.4,3.21,0,6.7-1.14,6.7-4.85M175.13,67.46c-1.92-.72-2.28-1.36-2.28-2.93v-4c0-1.07.36-1.64,1.21-1.64,1.64,0,5.21,2.93,12.4,2.93a14,14,0,0,0,7.84-1.93c1.86-1.28,2.64-3.42,2.64-6V52.06c0-.57-.14-.93-.64-.93-1.07,0-3.42,2.28-9.34,2.28-10.26,0-16.11-6.84-16.11-18.31,0-12.55,7.06-19.18,16.76-19.18,5.63,0,7.34,2.35,9,2.35.42,0,.64-.14.71-.64s.21-.78.71-.78h7.63c.78,0,1.07.43,1.07,1.21V51.85c0,5.77-.57,9.41-3.28,12.26-3.64,3.92-9.69,5.27-16.11,5.27a37.38,37.38,0,0,1-12.26-1.92" fill="#2699fb"/><path d="M217,52.13v-34a1.13,1.13,0,0,1,1.28-1.28H226c1,0,1.28.57,1.28,1.35V52.13A1.16,1.16,0,0,1,226,53.41h-7.7A1.16,1.16,0,0,1,217,52.13" fill="#2699fb"/><path d="M237.78,52.56c-1.35-.5-1.92-1-1.92-2.35V45.93c0-.93.35-1.35,1.06-1.35,1.36,0,4,2.63,9.84,2.63,3.56,0,5.35-1.07,5.35-3.35,0-2.06-1.22-2.85-5.14-5.06l-4.13-2.35c-4-2.35-6.41-4.78-6.41-9.55,0-6.42,4.41-11,14-11a22.54,22.54,0,0,1,8.34,1.36c1.49.64,1.92,1.07,1.92,2.28v4.13c0,.78-.21,1.29-.93,1.29-1.28,0-3.92-2.57-8.55-2.57-3.49,0-5,1.28-5,3.28,0,1.85,1.5,3.06,4.13,4.49l3.57,2.06c6.27,3.35,7.63,6.13,7.63,10,0,7-3.85,11.62-14.33,11.62a32.29,32.29,0,0,1-9.41-1.35" fill="#2699fb"/><path d="M227.74,5.64A5.64,5.64,0,1,1,222.1,0a5.64,5.64,0,0,1,5.64,5.64" fill="#2699fb"/><path d="M18.44,11.47A9.84,9.84,0,1,1,8.6,21.31a9.86,9.86,0,0,1,9.84-9.84m0,28.28A18.44,18.44,0,1,0,0,21.31,18.46,18.46,0,0,0,18.44,39.75" fill="#2699fb"/><path d="M35.39,43.82h-34a.82.82,0,0,0-.87.92v7.81a.78.78,0,0,0,.87.86H35.34c.61,0,1-.3,1-.86V44.74a.86.86,0,0,0-.92-.92" fill="#2699fb"/></svg>