<svg xmlns="http://www.w3.org/2000/svg" viewBox="0 0 128.69 21.36"><title>Mastercard</title><path d="M25.37,17.69a1.56,1.56,0,0,1-1.68-1.63c0-1.18.63-2.6,3.79-2.6a2.68,2.68,0,0,1,.94.1c.09.73-.45,4.13-3.05,4.13M27.5,3.89a14.91,14.91,0,0,0-5.22.95l-.63,3.72a13.61,13.61,0,0,1,4.7-.76c1.61,0,2.78.17,2.78,1.48A2.89,2.89,0,0,1,29,10.37s-1.26-.11-1.85-.11c-3.73,0-7.65,1.59-7.65,6.39,0,3.78,2.57,4.65,4.16,4.65a5.6,5.6,0,0,0,4.43-2L27.93,21h3.8L33.42,9.1c0-5-4.39-5.21-5.92-5.21" fill="#2699fb"/><path d="M41.21,7.87c.61,0,2.95.19,2.95.19l.54-3.8a20,20,0,0,0-4-.34c-3.19,0-6.42,1.27-6.42,5.63,0,4.94,5.4,4.44,5.4,6.52,0,1.39-1.51,1.5-2.68,1.5a14,14,0,0,1-3.83-.66l-.57,3.78a14.29,14.29,0,0,0,4.84.52c1,0,6.52.25,6.52-5.48,0-5.35-5.14-4.3-5.14-6.45,0-1.07.83-1.41,2.37-1.41" fill="#2699fb"/><path d="M50.28,8.36h2.29l.55-4.06H51l.44-2.51H47.09C47,1.88,44.55,16,44.55,17.68c0,2.54,1.43,3.67,3.43,3.65a11.59,11.59,0,0,0,3.24-.56l.54-3.67c-.3,0-.73.13-1.12.13-1.5,0-1.66-.8-1.57-1.39Z" fill="#2699fb"/><polygon points="14.21 0.46 9.96 13.06 9.74 0.46 3.45 0.46 0 20.99 4.16 20.99 6.79 5.51 7.17 20.99 10.14 20.99 15.68 5.51 13.22 20.99 17.64 20.99 21.04 0.46 14.21 0.46" fill="#2699fb"/><path d="M95.27,17.69a1.57,1.57,0,0,1-1.69-1.63c0-1.18.64-2.6,3.8-2.6a2.74,2.74,0,0,1,.94.1c.08.73-.46,4.13-3,4.13m2.12-13.8a14.84,14.84,0,0,0-5.22.95l-.63,3.72a13.61,13.61,0,0,1,4.7-.76C97.84,7.8,99,8,99,9.28a2.72,2.72,0,0,1-.15,1.09s-1.26-.11-1.85-.11c-3.73,0-7.64,1.59-7.64,6.39,0,3.78,2.57,4.65,4.16,4.65a5.59,5.59,0,0,0,4.42-2L97.82,21h3.79l1.7-11.87c0-5-4.39-5.21-5.92-5.21" fill="#2699fb"/><path d="M128.33,20.29a1.05,1.05,0,0,1-.4.41,1.11,1.11,0,0,1-1.08,0,1,1,0,0,1-.41-.41,1.09,1.09,0,0,1-.14-.54,1,1,0,0,1,.15-.55,1,1,0,0,1,.4-.4,1.09,1.09,0,0,1,.54-.14,1,1,0,0,1,.53.14,1.05,1.05,0,0,1,.41.4,1.11,1.11,0,0,1,.15.55,1.08,1.08,0,0,1-.15.54m.19-1.19a1.22,1.22,0,0,0-.49-.49,1.37,1.37,0,0,0-.65-.17,1.39,1.39,0,0,0-.64.17,1.16,1.16,0,0,0-.49.49,1.33,1.33,0,0,0,0,1.3,1.33,1.33,0,0,0,.48.49,1.4,1.4,0,0,0,.65.17,1.34,1.34,0,0,0,.65-.17,1.28,1.28,0,0,0,.49-.49,1.26,1.26,0,0,0,.17-.65,1.34,1.34,0,0,0-.17-.65" fill="#2699fb"/><path d="M127.32,19.68h-.27v-.43h.25l.23,0a.25.25,0,0,1,.1.08.18.18,0,0,1,0,.11.2.2,0,0,1-.07.16.45.45,0,0,1-.27.06m.51.51a2.14,2.14,0,0,0-.21-.27.25.25,0,0,0-.12-.08.41.41,0,0,0,.29-.13.36.36,0,0,0,.11-.26.33.33,0,0,0-.07-.21.39.39,0,0,0-.17-.14,1.36,1.36,0,0,0-.36,0h-.49v1.41H127v-.6h.13a.33.33,0,0,1,.19.05,1.86,1.86,0,0,1,.24.33l.12.22H128Z" fill="#2699fb"/><path d="M112,4.1c-1.93,0-3.36,2.63-3.36,2.63l.38-2.42h-4L102.36,21h4.42c1.26-7.14,1.49-12.93,4.48-11.87a16.81,16.81,0,0,1,1.61-5A5.11,5.11,0,0,0,112,4.1" fill="#2699fb"/><path d="M117.69,17.05c-1.55,0-2.28-1.31-2.28-3.35,0-3.34,1.5-5.55,3.4-5.55,1.55,0,2.34,1.07,2.34,3.58,0,2.27-1.12,5.32-3.46,5.32M123.16.48l-.93,5.77A5.68,5.68,0,0,0,118.07,4c-3.95,0-7.25,4.77-7.25,10.24,0,3.54,1.76,7,5.35,7a5.38,5.38,0,0,0,4-1.8L120,21h4.19l3.3-20.5Z" fill="#2699fb"/><path d="M60.14,7.69c2.43,0,2,2.73,2,3H57.34c0-.28.45-2.95,2.8-2.95m5.57,6.36a31.21,31.21,0,0,0,.56-3.93c0-2.84-1.41-6.3-6.14-6.3-4.34,0-7.55,4.67-7.55,10,0,6.1,4,7.54,7.45,7.54a10.91,10.91,0,0,0,4.55-.71l.76-4.15a13.37,13.37,0,0,1-4.57,1.06c-4.63,0-3.82-3.46-3.82-3.46Z" fill="#2699fb"/><path d="M85.93,4.39a7.67,7.67,0,0,1,3.95,1.23l.71-4.57a15.55,15.55,0,0,0-4.86-1c-5,0-9.81,4.32-9.81,12.43,0,5.38,2.61,8.93,7.75,8.93a19.82,19.82,0,0,0,3.77-.59l.78-4.71a10.41,10.41,0,0,1-3.57,1.06c-3.06,0-4.29-2.34-4.29-4.84,0-5.09,2.63-7.89,5.57-7.89" fill="#2699fb"/><path d="M75.84,4.1c-1.93,0-3.36,2.64-3.36,2.64l.38-2.43h-4L66.16,21h4.42c1.26-7.13,1.49-12.93,4.49-11.87a16.58,16.58,0,0,1,1.6-5,5.11,5.11,0,0,0-.83-.05" fill="#2699fb"/></svg>