<svg xmlns="http://www.w3.org/2000/svg" viewBox="0 0 18.88 19.12"><title>Menu - Default</title><path d="M18.56,0H.31A.29.29,0,0,0,0,.33V3.09a.28.28,0,0,0,.31.31H18.54c.22,0,.34-.11.34-.31V.33A.3.3,0,0,0,18.56,0" fill="#2699fb"/><path d="M18.56,7.86H.31A.29.29,0,0,0,0,8.19V11a.28.28,0,0,0,.31.31H18.54c.22,0,.34-.11.34-.31V8.19a.3.3,0,0,0-.32-.33" fill="#2699fb"/><path d="M18.56,15.72H.31a.29.29,0,0,0-.31.33v2.76a.28.28,0,0,0,.31.31H18.54c.22,0,.34-.11.34-.31V16.05a.3.3,0,0,0-.32-.33" fill="#2699fb"/></svg>