<svg xmlns="http://www.w3.org/2000/svg" viewBox="0 0 19.12 19.12"><title>Menu - Close</title><path d="M18.51,16.45,2.66.6a.25.25,0,0,0-.38,0L.61,2.29a.24.24,0,0,0,0,.37L16.44,18.49a.25.25,0,0,0,.39,0l1.68-1.67a.26.26,0,0,0,0-.39" fill="#2699fb"/><path d="M18.51,16.45,2.66.6a.25.25,0,0,0-.38,0L.61,2.29a.24.24,0,0,0,0,.37L16.44,18.49a.25.25,0,0,0,.39,0l1.68-1.67A.26.26,0,0,0,18.51,16.45Z" fill="none" stroke="#2699fb" stroke-miterlimit="10"/><path d="M16.45.61.6,16.45a.25.25,0,0,0,0,.38l1.68,1.68a.24.24,0,0,0,.37,0L18.49,2.68a.26.26,0,0,0,0-.4L16.84.61a.26.26,0,0,0-.39,0" fill="#2699fb"/><path d="M16.45.61.6,16.45a.25.25,0,0,0,0,.38l1.68,1.68a.24.24,0,0,0,.37,0L18.49,2.68a.26.26,0,0,0,0-.4L16.84.61A.26.26,0,0,0,16.45.61Z" fill="none" stroke="#2699fb" stroke-miterlimit="10"/></svg>