<svg xmlns="http://www.w3.org/2000/svg" viewBox="0 0 79.48 21.52"><title>Paypal</title><path d="M9.58,7.83a4.57,4.57,0,0,1-2.74.72H6.31a.64.64,0,0,1-.66-.82L6.3,4.91a1.1,1.1,0,0,1,1-.82H8a3.48,3.48,0,0,1,1.89.42,1.45,1.45,0,0,1,.62,1.29,2.34,2.34,0,0,1-1,2m4.66-4.32a3.16,3.16,0,0,0-1.18-1.28,5.32,5.32,0,0,0-1.88-.69,15.71,15.71,0,0,0-2.55-.2H4.11a1.14,1.14,0,0,0-1.05.83L0,15.41a.65.65,0,0,0,.66.83H2.84a1.11,1.11,0,0,0,1-.83l.74-3.21a1.11,1.11,0,0,1,1-.82h.62a10.31,10.31,0,0,0,6.17-1.63,5.08,5.08,0,0,0,2.21-4.29,4,4,0,0,0-.42-1.95" fill="#2699fb"/><polygon points="74.89 0 74.89 0.6 74.65 0.6 74.65 0.9 74.89 0.9 74.89 2.02 75.06 2.58 75.55 2.75 75.75 2.73 75.97 2.69 75.97 2.38 75.95 2.38 75.82 2.42 75.64 2.44 75.42 2.41 75.3 2.3 75.25 2.12 75.25 1.86 75.25 0.9 75.97 0.9 75.97 0.6 75.25 0.6 75.25 0 74.89 0" fill="#2699fb"/><polygon points="78.41 0.62 78.03 0.88 77.8 0.63 77.43 0.54 77.08 0.62 76.75 0.83 76.75 0.6 76.4 0.6 76.4 2.71 76.75 2.71 76.75 1.13 77.04 0.95 77.34 0.88 77.58 0.92 77.69 1.04 77.75 1.24 77.76 1.5 77.76 2.71 78.11 2.71 78.11 1.36 78.11 1.25 78.1 1.15 78.4 0.95 78.7 0.88 78.93 0.92 79.06 1.04 79.1 1.25 79.12 1.5 79.12 2.71 79.48 2.71 79.48 1.34 79.31 0.75 78.8 0.54 78.41 0.62" fill="#2699fb"/><path d="M21.19,13.08l-.33.44L20,14a2.9,2.9,0,0,1-1.13.25A2.55,2.55,0,0,1,17.64,14l-.42-.81a1.57,1.57,0,0,1,.32-1.05l.92-.63a8.38,8.38,0,0,1,1.42-.32l1.6-.18.15.27c0,.15-.3,1.31-.44,1.83M24.68,5.4a8.19,8.19,0,0,0-3.87-.69,17.65,17.65,0,0,0-2.61.2,10.73,10.73,0,0,0-1.11.21,1.27,1.27,0,0,0-1,1l-.26,1.09c-.15.69.25.67.42.61a10.21,10.21,0,0,1,1.29-.38,9.76,9.76,0,0,1,2-.28,5.49,5.49,0,0,1,2,.28,1,1,0,0,1,.65,1l0,.3-.31.19c-1.23.08-2.12.19-3.19.35a9.72,9.72,0,0,0-2.75.76,4.28,4.28,0,0,0-1.86,1.47,4,4,0,0,0-.62,2.26,2.71,2.71,0,0,0,.88,2.06,3.33,3.33,0,0,0,2.28.77A5.9,5.9,0,0,0,18,16.47L19,16.11l.89-.49.81-.54h0l-.08.35h0a.64.64,0,0,0,.58.81h2l0,0a1.12,1.12,0,0,0,.94-.81l1.57-6.83.09-.56,0-.52A2.27,2.27,0,0,0,24.68,5.4" fill="#2699fb"/><path d="M60.52,13.09l-.35.45-.85.44a3.06,3.06,0,0,1-1.12.24A2.47,2.47,0,0,1,57,14l-.43-.8a1.71,1.71,0,0,1,.31-1.06,2.25,2.25,0,0,1,.93-.63,8.38,8.38,0,0,1,1.42-.32L60.8,11l.15.27c0,.15-.3,1.3-.43,1.83M64,5.41a8.24,8.24,0,0,0-3.87-.69,16.39,16.39,0,0,0-2.61.2c-.65.1-.72.12-1.12.2a1.28,1.28,0,0,0-.95,1l-.26,1.09c-.15.69.24.66.42.61a12.43,12.43,0,0,1,1.29-.39,9.71,9.71,0,0,1,2-.27,5.18,5.18,0,0,1,2,.28,1,1,0,0,1,.66,1l0,.31-.3.19C60,9,59.08,9.12,58,9.28a9.82,9.82,0,0,0-2.75.75,4.24,4.24,0,0,0-1.86,1.48,3.91,3.91,0,0,0-.62,2.25,2.64,2.64,0,0,0,.88,2.06,3.34,3.34,0,0,0,2.28.78,6,6,0,0,0,1.36-.12l1-.36.9-.49.81-.55v0l-.07.35h0a.63.63,0,0,0,.57.81h2a1.11,1.11,0,0,0,.92-.82l1.58-6.82.08-.56,0-.52A2.28,2.28,0,0,0,64,5.41" fill="#2699fb"/><path d="M48.89,7.89a4.61,4.61,0,0,1-2.73.71h-.54A.65.65,0,0,1,45,7.77L45.61,5a1.12,1.12,0,0,1,1-.83h.7a3.42,3.42,0,0,1,1.88.42,1.42,1.42,0,0,1,.63,1.29,2.38,2.38,0,0,1-1,2m4.67-4.34a3.47,3.47,0,0,0-1.19-1.28,5.71,5.71,0,0,0-1.89-.69,15.49,15.49,0,0,0-2.54-.19H43.41a1.12,1.12,0,0,0-1,.82L39.33,15.46a.65.65,0,0,0,.66.83h2.17a1.11,1.11,0,0,0,1-.82l.73-3.21a1.13,1.13,0,0,1,1-.83h.62A10.3,10.3,0,0,0,51.77,9.8,5.12,5.12,0,0,0,54,5.5a4.2,4.2,0,0,0-.41-1.95" fill="#2699fb"/><path d="M72.12,2.32a.64.64,0,0,0-.65-.82H69.53a1.11,1.11,0,0,0-.93.66l-.11.17-.09.43L65.69,15.08l-.09.37h0a.61.61,0,0,0,.54.77l0,.05h2a1.09,1.09,0,0,0,.93-.67l.11-.16,2.9-13.13Z" fill="#2699fb"/><path d="M39.39,4.87H36.8a1.86,1.86,0,0,0-1.36.83S32.34,11,32,11.55h-.36l-1-5.81a1.19,1.19,0,0,0-1.18-.85H27.59a.65.65,0,0,0-.65.83s1.48,8.38,1.77,10.35c.14,1.09,0,1.28,0,1.28l-1.91,3.34c-.29.45-.13.83.33.83h2.24a1.83,1.83,0,0,0,1.36-.82L39.34,6.1s.82-1.24,0-1.23" fill="#2699fb"/></svg>