<svg xmlns="http://www.w3.org/2000/svg" viewBox="0 0 32.82 26.86"><title>Twitter</title><path d="M12.24,26.86a28.19,28.19,0,0,1-4.35-.34,20.57,20.57,0,0,1-5.95-2.17L0,23.29l2.11-.69c2.3-.76,3.7-1.23,5.43-2a7.24,7.24,0,0,1-3.72-4.3l-.49-1.49.4.06a6.73,6.73,0,0,1-.91-1.13A6.83,6.83,0,0,1,1.65,9.66l.09-1.3.77.3a7.58,7.58,0,0,1-.7-2,7.55,7.55,0,0,1,.8-5.06L3.29.39l.9,1.09A16.67,16.67,0,0,0,15,7.56a6.36,6.36,0,0,1,.39-3.43,6.41,6.41,0,0,1,2.61-3A7.9,7.9,0,0,1,22.54,0,7.33,7.33,0,0,1,27,1.86a14.88,14.88,0,0,0,1.63-.55c.36-.13.77-.29,1.27-.46L31.79.2,30.57,3.69h.25l2-.09L31.64,5.2a1.59,1.59,0,0,0-.11.16c-.1.14-.22.32-1.84,2.49a3,3,0,0,0-.57,2,18.85,18.85,0,0,1-1,7.58,13.41,13.41,0,0,1-3.6,5.34A16,16,0,0,1,17,26.4a23,23,0,0,1-4.71.46" fill="#2699fb"/></svg>