<svg xmlns="http://www.w3.org/2000/svg" viewBox="0 0 62.78 21.38"><title>Visa</title><path d="M3.88,4.31,6.22,21.09H12L22.7.31h-6L12.1,10c-.64,1.36-1.2,2.6-1.68,3.74-.09-1.19-.19-2.34-.3-3.51L9.2.31H0L9.56,7.88Z" fill="#2699fb"/><polygon points="25.36 0.31 21.41 21.09 26.83 21.09 30.77 0.31 25.36 0.31" fill="#2699fb"/><path d="M30,19.87a10.5,10.5,0,0,0,6,1.51c5.11,0,8.55-2.89,8.55-7.19,0-2.36-1.37-4.22-4.19-5.7C38.75,7.61,37.79,7,37.79,6.26s.74-1.45,2.48-1.45a7.15,7.15,0,0,1,3.24.8l.62.33,1.73-4.62-.46-.26A10,10,0,0,0,40.49,0c-4.9,0-8.32,2.86-8.32,7,0,3,2.33,4.63,4.39,5.74s2.31,1.57,2.31,2.22c0,1.24-1.35,1.69-2.5,1.69a8.58,8.58,0,0,1-4.3-1.17l-.61-.36-1.84,4.51Z" fill="#2699fb"/><path d="M55.39,8.26c.22-.47.44-1,.66-1.56,0,.49.07,1,.1,1.36l.32,3.55H53.84ZM49.74,21.09,52.07,16h4.68l.41,5.08h5.62L60.35.31H54.06L44,21.09Z" fill="#2699fb"/></svg>